<svg xmlns="http://www.w3.org/2000/svg" viewBox="0 0 600 400" preserveAspectRatio="xMidYMid slice">
  <defs>
    <linearGradient id="bg" x1="0%" y1="0%" x2="100%" y2="100%">
      <stop offset="0%" style="stop-color:#f093fb"/><stop offset="100%" style="stop-color:#f5576c"/>
    </linearGradient>
    <pattern id="dotsAI" width="22" height="22" patternUnits="userSpaceOnUse"><circle cx="11" cy="11" r="1" fill="rgba(255,255,255,0.1)"/></pattern>
    <filter id="shAI" x="-20%" y="-20%" width="140%" height="140%">
      <feGaussianBlur in="SourceAlpha" stdDeviation="8"/><feOffset dy="6"/>
      <feComponentTransfer><feFuncA type="linear" slope="0.3"/></feComponentTransfer>
      <feMerge><feMergeNode/><feMergeNode in="SourceGraphic"/></feMerge>
    </filter>
  </defs>
  <rect width="600" height="400" fill="url(#bg)"/>
  <rect width="600" height="400" fill="url(#dotsAI)"/>
  <g transform="translate(80,40)" filter="url(#shAI)">
    <rect x="0" y="0" width="440" height="230" rx="12" fill="#fff"/>
    <rect x="0" y="0" width="440" height="36" rx="12" fill="#1a1f35"/>
    <rect x="0" y="26" width="440" height="10" fill="#1a1f35"/>
    <text x="20" y="22" font-family="Arial,sans-serif" font-weight="800" font-size="11" fill="#f093fb">⬢ ML FORECAST</text>
    <text x="420" y="22" text-anchor="end" font-family="Arial,sans-serif" font-weight="700" font-size="10" fill="#a6e3a1">92% ACCURACY</text>
    <g transform="translate(20,56)">
      <line x1="0" y1="160" x2="400" y2="160" stroke="#e0e6ed" stroke-width="1"/>
      <line x1="0" y1="0" x2="0" y2="160" stroke="#e0e6ed" stroke-width="1"/>
      <polyline points="0,120 30,108 60,115 90,90 120,95 150,80 180,72 210,82" fill="none" stroke="#f5576c" stroke-width="3" stroke-linecap="round" stroke-linejoin="round"/>
      <polyline points="0,120 30,108 60,115 90,90 120,95 150,80 180,72 210,82 210,160 0,160" fill="rgba(245,87,108,0.15)"/>
      <polyline points="210,82 240,68 270,55 300,42 330,30 360,20 390,12" fill="none" stroke="#f093fb" stroke-width="3" stroke-linecap="round" stroke-linejoin="round" stroke-dasharray="4,3"/>
      <polyline points="210,82 240,80 270,68 300,55 330,40 360,30 390,22 390,2 360,10 330,20 300,32 270,45 240,58 210,82" fill="rgba(240,147,251,0.2)"/>
      <line x1="210" y1="0" x2="210" y2="160" stroke="#f093fb" stroke-width="1" stroke-dasharray="3,3"/>
      <text x="210" y="-2" text-anchor="middle" font-family="Arial,sans-serif" font-weight="700" font-size="9" fill="#f093fb">NOW</text>
      <circle cx="30" cy="108" r="3" fill="#f5576c"/>
      <circle cx="90" cy="90" r="3" fill="#f5576c"/>
      <circle cx="150" cy="80" r="3" fill="#f5576c"/>
      <circle cx="210" cy="82" r="4" fill="#f5576c"/>
      <circle cx="270" cy="55" r="3" fill="#f093fb"/>
      <circle cx="330" cy="30" r="3" fill="#f093fb"/>
      <circle cx="390" cy="12" r="4" fill="#f093fb"/>
      <text x="0" y="172" font-family="Arial,sans-serif" font-size="8" fill="#999">Jan</text>
      <text x="100" y="172" font-family="Arial,sans-serif" font-size="8" fill="#999">Apr</text>
      <text x="210" y="172" font-family="Arial,sans-serif" font-size="8" fill="#999">Jul</text>
      <text x="320" y="172" font-family="Arial,sans-serif" font-size="8" fill="#999">Oct</text>
    </g>
    <text x="20" y="222" font-family="Arial,sans-serif" font-size="9" fill="#666">━ Historical sales  ┄ ML prediction</text>
  </g>
  <g transform="translate(0,295)">
    <rect x="0" y="0" width="600" height="105" fill="rgba(255,255,255,0.97)"/>
    <rect x="0" y="0" width="600" height="2" fill="#f5576c"/>
    <text x="30" y="34" font-family="Arial,sans-serif" font-weight="800" font-size="22" fill="#1a202c">AI Demand Forecasting</text>
    <text x="30" y="56" font-family="Arial,sans-serif" font-size="12" fill="#5b6470">ML-based product demand prediction with 92% accuracy</text>
    <g transform="translate(30,68)">
      <rect x="0" y="0" width="118" height="22" rx="11" fill="#1a202c"/>
      <text x="59" y="15" text-anchor="middle" font-family="Arial,sans-serif" font-weight="700" font-size="10" fill="#fbbf24">★ CLIENT PROJECT</text>
    </g>
    <g transform="translate(156,68)">
      <rect x="0" y="0" width="100" height="22" rx="11" fill="rgba(245,87,108,0.15)" stroke="#f5576c" stroke-width="1"/>
      <text x="50" y="15" text-anchor="middle" font-family="Arial,sans-serif" font-weight="700" font-size="10" fill="#f5576c">TENSORFLOW</text>
    </g>
    <g transform="translate(495,55)">
      <rect x="0" y="0" width="80" height="36" rx="6" fill="#f5576c"/>
      <text x="40" y="16" text-anchor="middle" font-family="Arial,sans-serif" font-weight="700" font-size="8" fill="rgba(255,255,255,0.85)">ACCURACY</text>
      <text x="40" y="30" text-anchor="middle" font-family="Arial,sans-serif" font-weight="900" font-size="13" fill="#fff">92%</text>
    </g>
  </g>
</svg>
