<svg xmlns="http://www.w3.org/2000/svg" viewBox="0 0 600 400" preserveAspectRatio="xMidYMid slice">
  <defs>
    <linearGradient id="bg" x1="0%" y1="0%" x2="100%" y2="100%">
      <stop offset="0%" style="stop-color:#e8a942"/><stop offset="100%" style="stop-color:#c46d00"/>
    </linearGradient>
    <pattern id="dotsEC" width="22" height="22" patternUnits="userSpaceOnUse"><circle cx="11" cy="11" r="1" fill="rgba(255,255,255,0.14)"/></pattern>
    <filter id="shEC" x="-20%" y="-20%" width="140%" height="140%">
      <feGaussianBlur in="SourceAlpha" stdDeviation="8"/><feOffset dy="6"/>
      <feComponentTransfer><feFuncA type="linear" slope="0.3"/></feComponentTransfer>
      <feMerge><feMergeNode/><feMergeNode in="SourceGraphic"/></feMerge>
    </filter>
  </defs>
  <rect width="600" height="400" fill="url(#bg)"/>
  <rect width="600" height="400" fill="url(#dotsEC)"/>
  <!-- Storefront -->
  <g transform="translate(70,30)" filter="url(#shEC)">
    <rect x="0" y="0" width="460" height="250" rx="12" fill="#fff"/>
    <rect x="0" y="0" width="460" height="32" rx="12" fill="#f5f7fa"/>
    <rect x="0" y="22" width="460" height="10" fill="#f5f7fa"/>
    <circle cx="14" cy="16" r="4" fill="#ff5f56"/><circle cx="28" cy="16" r="4" fill="#ffbd2e"/><circle cx="42" cy="16" r="4" fill="#27c93f"/>
    <text x="230" y="20" text-anchor="middle" font-family="Arial,sans-serif" font-size="9" fill="#999">myshop.com</text>
    <!-- Hero banner -->
    <rect x="14" y="44" width="432" height="60" rx="6" fill="url(#bg)"/>
    <text x="32" y="68" font-family="Arial,sans-serif" font-weight="900" font-size="16" fill="#fff">RAMADAN COLLECTION</text>
    <text x="32" y="86" font-family="Arial,sans-serif" font-size="10" fill="rgba(255,255,255,0.9)">New arrivals — up to 40% off</text>
    <rect x="320" y="74" width="100" height="22" rx="11" fill="#fff"/>
    <text x="370" y="88" text-anchor="middle" font-family="Arial,sans-serif" font-weight="800" font-size="10" fill="#c46d00">SHOP NOW →</text>
    <!-- Product grid -->
    <g transform="translate(14,114)">
      <rect x="0" y="0" width="100" height="100" rx="6" fill="#fff" stroke="#e0e6ed" stroke-width="1"/>
      <rect x="0" y="0" width="100" height="60" rx="6" fill="#fef3c7"/>
      <circle cx="50" cy="30" r="18" fill="#e8a942"/>
      <text x="8" y="74" font-family="Arial,sans-serif" font-weight="800" font-size="9" fill="#1a202c">Date Premium</text>
      <text x="8" y="86" font-family="Arial,sans-serif" font-weight="900" font-size="11" fill="#c46d00">$12.99</text>
      <text x="92" y="86" text-anchor="end" font-family="Arial,sans-serif" font-size="9" fill="#FFC837">★★★★★</text>

      <rect x="110" y="0" width="100" height="100" rx="6" fill="#fff" stroke="#e0e6ed" stroke-width="1"/>
      <rect x="110" y="0" width="100" height="60" rx="6" fill="#dcfce7"/>
      <rect x="146" y="14" width="28" height="40" rx="6" fill="#0AA64D"/>
      <text x="118" y="74" font-family="Arial,sans-serif" font-weight="800" font-size="9" fill="#1a202c">Olive Oil</text>
      <text x="118" y="86" font-family="Arial,sans-serif" font-weight="900" font-size="11" fill="#c46d00">$24.99</text>
      <text x="202" y="86" text-anchor="end" font-family="Arial,sans-serif" font-size="9" fill="#FFC837">★★★★☆</text>

      <rect x="220" y="0" width="100" height="100" rx="6" fill="#fff" stroke="#e0e6ed" stroke-width="1"/>
      <rect x="220" y="0" width="100" height="60" rx="6" fill="#fce7f3"/>
      <circle cx="270" cy="30" r="18" fill="#ec4899"/>
      <text x="228" y="74" font-family="Arial,sans-serif" font-weight="800" font-size="9" fill="#1a202c">Rose Tea</text>
      <text x="228" y="86" font-family="Arial,sans-serif" font-weight="900" font-size="11" fill="#c46d00">$8.50</text>
      <text x="312" y="86" text-anchor="end" font-family="Arial,sans-serif" font-size="9" fill="#FFC837">★★★★★</text>

      <rect x="330" y="0" width="102" height="100" rx="6" fill="#fff" stroke="#e0e6ed" stroke-width="1"/>
      <rect x="330" y="0" width="102" height="60" rx="6" fill="#fef3c7"/>
      <rect x="368" y="14" width="28" height="40" rx="3" fill="#FFC837"/>
      <text x="338" y="74" font-family="Arial,sans-serif" font-weight="800" font-size="9" fill="#1a202c">Honey Jar</text>
      <text x="338" y="86" font-family="Arial,sans-serif" font-weight="900" font-size="11" fill="#c46d00">$15.00</text>
      <text x="424" y="86" text-anchor="end" font-family="Arial,sans-serif" font-size="9" fill="#FFC837">★★★★★</text>
    </g>
    <!-- Bottom stats -->
    <g transform="translate(14,224)">
      <rect x="0" y="0" width="432" height="20" rx="10" fill="rgba(196,109,0,0.1)"/>
      <text x="12" y="14" font-family="Arial,sans-serif" font-weight="800" font-size="9" fill="#c46d00">🛒 LIVE STORE</text>
      <text x="120" y="14" font-family="Arial,sans-serif" font-weight="700" font-size="9" fill="#666">↻ POS sync • Stripe • Multi-language</text>
      <text x="420" y="14" text-anchor="end" font-family="Arial,sans-serif" font-weight="800" font-size="9" fill="#27c93f">● ONLINE</text>
    </g>
  </g>
  <g transform="translate(0,295)">
    <rect x="0" y="0" width="600" height="105" fill="rgba(255,255,255,0.97)"/>
    <rect x="0" y="0" width="600" height="2" fill="#c46d00"/>
    <text x="30" y="34" font-family="Arial,sans-serif" font-weight="800" font-size="22" fill="#1a202c">E-commerce Odoo Setup</text>
    <text x="30" y="56" font-family="Arial,sans-serif" font-size="12" fill="#5b6470">Full online store with custom theme, payments &amp; POS sync</text>
    <g transform="translate(30,68)">
      <rect x="0" y="0" width="118" height="22" rx="11" fill="#1a202c"/>
      <text x="59" y="15" text-anchor="middle" font-family="Arial,sans-serif" font-weight="700" font-size="10" fill="#fbbf24">★ CLIENT PROJECT</text>
    </g>
    <g transform="translate(156,68)">
      <rect x="0" y="0" width="116" height="22" rx="11" fill="rgba(196,109,0,0.15)" stroke="#c46d00" stroke-width="1"/>
      <text x="58" y="15" text-anchor="middle" font-family="Arial,sans-serif" font-weight="700" font-size="10" fill="#c46d00">ODOO WEBSITE</text>
    </g>
    <g transform="translate(495,55)">
      <rect x="0" y="0" width="80" height="36" rx="6" fill="#c46d00"/>
      <text x="40" y="16" text-anchor="middle" font-family="Arial,sans-serif" font-weight="700" font-size="8" fill="rgba(255,255,255,0.85)">CHANNELS</text>
      <text x="40" y="30" text-anchor="middle" font-family="Arial,sans-serif" font-weight="900" font-size="11" fill="#fff">WEB+POS</text>
    </g>
  </g>
</svg>
