<svg xmlns="http://www.w3.org/2000/svg" viewBox="0 0 600 400" preserveAspectRatio="xMidYMid slice">
  <defs>
    <linearGradient id="bg" x1="0%" y1="0%" x2="100%" y2="100%">
      <stop offset="0%" style="stop-color:#4facfe"/><stop offset="100%" style="stop-color:#00f2fe"/>
    </linearGradient>
    <pattern id="dotsFBR" width="22" height="22" patternUnits="userSpaceOnUse"><circle cx="11" cy="11" r="1" fill="rgba(255,255,255,0.12)"/></pattern>
    <filter id="shFBR" x="-20%" y="-20%" width="140%" height="140%">
      <feGaussianBlur in="SourceAlpha" stdDeviation="8"/><feOffset dy="6"/>
      <feComponentTransfer><feFuncA type="linear" slope="0.3"/></feComponentTransfer>
      <feMerge><feMergeNode/><feMergeNode in="SourceGraphic"/></feMerge>
    </filter>
  </defs>
  <rect width="600" height="400" fill="url(#bg)"/>
  <rect width="600" height="400" fill="url(#dotsFBR)"/>
  <g transform="translate(140,40)" filter="url(#shFBR)">
    <rect x="0" y="0" width="200" height="240" rx="10" fill="#fff"/>
    <rect x="0" y="0" width="200" height="44" rx="10" fill="#0891B2"/>
    <rect x="0" y="30" width="200" height="14" fill="#0891B2"/>
    <text x="100" y="28" text-anchor="middle" font-family="Arial,sans-serif" font-weight="900" font-size="13" fill="#fff">FBR TAX RETURN</text>
    <text x="16" y="64" font-family="Arial,sans-serif" font-weight="700" font-size="9" fill="#666">NTN</text>
    <text x="184" y="64" text-anchor="end" font-family="monospace" font-weight="700" font-size="10" fill="#1a202c">1234567-8</text>
    <line x1="16" y1="72" x2="184" y2="72" stroke="#e0e6ed" stroke-width="0.5"/>
    <text x="16" y="86" font-family="Arial,sans-serif" font-weight="700" font-size="9" fill="#666">PERIOD</text>
    <text x="184" y="86" text-anchor="end" font-family="Arial,sans-serif" font-weight="700" font-size="10" fill="#1a202c">Q4 2024</text>
    <line x1="16" y1="94" x2="184" y2="94" stroke="#e0e6ed" stroke-width="0.5"/>
    <text x="16" y="108" font-family="Arial,sans-serif" font-weight="700" font-size="9" fill="#666">SALES TAX</text>
    <text x="184" y="108" text-anchor="end" font-family="monospace" font-weight="800" font-size="11" fill="#0891B2">PKR 2,45,000</text>
    <line x1="16" y1="116" x2="184" y2="116" stroke="#e0e6ed" stroke-width="0.5"/>
    <text x="16" y="130" font-family="Arial,sans-serif" font-weight="700" font-size="9" fill="#666">INPUT TAX</text>
    <text x="184" y="130" text-anchor="end" font-family="monospace" font-weight="800" font-size="11" fill="#0891B2">PKR 1,80,000</text>
    <line x1="16" y1="138" x2="184" y2="138" stroke="#e0e6ed" stroke-width="0.5"/>
    <text x="16" y="154" font-family="Arial,sans-serif" font-weight="800" font-size="11" fill="#1a202c">PAYABLE</text>
    <text x="184" y="154" text-anchor="end" font-family="monospace" font-weight="900" font-size="13" fill="#27c93f">PKR 65,000</text>
    <rect x="16" y="166" width="168" height="28" rx="14" fill="rgba(39,201,63,0.15)"/>
    <circle cx="34" cy="180" r="5" fill="#27c93f"/>
    <text x="100" y="184" text-anchor="middle" font-family="Arial,sans-serif" font-weight="800" font-size="10" fill="#0F7B3F">FILED AUTOMATICALLY</text>
    <text x="100" y="214" text-anchor="middle" font-family="Arial,sans-serif" font-size="8" fill="#999">Federal Board of Revenue</text>
    <text x="100" y="226" text-anchor="middle" font-family="Arial,sans-serif" font-size="8" fill="#999">Pakistan • fbr.gov.pk</text>
  </g>
  <g opacity="0.85">
    <text x="65" y="85" font-family="Arial,sans-serif" font-weight="800" font-size="14" fill="#fff">Odoo</text>
    <text x="65" y="100" font-family="Arial,sans-serif" font-size="9" fill="#fff">ERP</text>
    <line x1="80" y1="115" x2="135" y2="160" stroke="#fff" stroke-width="2" stroke-dasharray="4,3" opacity="0.7"/>
    <circle cx="135" cy="160" r="4" fill="#fff"/>
    <text x="465" y="85" font-family="Arial,sans-serif" font-weight="800" font-size="14" fill="#fff">FBR</text>
    <text x="465" y="100" font-family="Arial,sans-serif" font-size="9" fill="#fff">Portal</text>
    <line x1="465" y1="115" x2="345" y2="160" stroke="#fff" stroke-width="2" stroke-dasharray="4,3" opacity="0.7"/>
    <circle cx="345" cy="160" r="4" fill="#fff"/>
  </g>
  <g transform="translate(0,295)">
    <rect x="0" y="0" width="600" height="105" fill="rgba(255,255,255,0.97)"/>
    <rect x="0" y="0" width="600" height="2" fill="#0891B2"/>
    <text x="30" y="34" font-family="Arial,sans-serif" font-weight="800" font-size="22" fill="#1a202c">FBR Tax Integration</text>
    <text x="30" y="56" font-family="Arial,sans-serif" font-size="12" fill="#5b6470">Automated tax compliance for Pakistan FBR / SRB systems</text>
    <g transform="translate(30,68)">
      <rect x="0" y="0" width="118" height="22" rx="11" fill="#1a202c"/>
      <text x="59" y="15" text-anchor="middle" font-family="Arial,sans-serif" font-weight="700" font-size="10" fill="#fbbf24">★ CLIENT PROJECT</text>
    </g>
    <g transform="translate(156,68)">
      <rect x="0" y="0" width="100" height="22" rx="11" fill="rgba(8,145,178,0.15)" stroke="#0891B2" stroke-width="1"/>
      <text x="50" y="15" text-anchor="middle" font-family="Arial,sans-serif" font-weight="700" font-size="10" fill="#0891B2">REST API</text>
    </g>
    <g transform="translate(495,55)">
      <rect x="0" y="0" width="80" height="36" rx="6" fill="#0891B2"/>
      <text x="40" y="16" text-anchor="middle" font-family="Arial,sans-serif" font-weight="700" font-size="8" fill="rgba(255,255,255,0.85)">SCALE</text>
      <text x="40" y="30" text-anchor="middle" font-family="Arial,sans-serif" font-weight="900" font-size="13" fill="#fff">4 BR</text>
    </g>
  </g>
</svg>
