<svg xmlns="http://www.w3.org/2000/svg" viewBox="0 0 600 400" preserveAspectRatio="xMidYMid slice">
  <defs>
    <linearGradient id="bg" x1="0%" y1="0%" x2="100%" y2="100%">
      <stop offset="0%" style="stop-color:#667eea"/>
      <stop offset="100%" style="stop-color:#764ba2"/>
    </linearGradient>
    <pattern id="dotsInv" width="22" height="22" patternUnits="userSpaceOnUse">
      <circle cx="11" cy="11" r="1" fill="rgba(255,255,255,0.1)"/>
    </pattern>
    <filter id="shInv" x="-20%" y="-20%" width="140%" height="140%">
      <feGaussianBlur in="SourceAlpha" stdDeviation="8"/><feOffset dy="6"/>
      <feComponentTransfer><feFuncA type="linear" slope="0.3"/></feComponentTransfer>
      <feMerge><feMergeNode/><feMergeNode in="SourceGraphic"/></feMerge>
    </filter>
  </defs>
  <rect width="600" height="400" fill="url(#bg)"/>
  <rect width="600" height="400" fill="url(#dotsInv)"/>
  <g transform="translate(80,40)" filter="url(#shInv)">
    <rect x="0" y="0" width="440" height="230" rx="12" fill="#fff"/>
    <rect x="0" y="0" width="440" height="32" rx="12" fill="#f5f7fa"/>
    <rect x="0" y="22" width="440" height="10" fill="#f5f7fa"/>
    <circle cx="14" cy="16" r="4" fill="#ff5f56"/><circle cx="28" cy="16" r="4" fill="#ffbd2e"/><circle cx="42" cy="16" r="4" fill="#27c93f"/>
    <text x="220" y="20" text-anchor="middle" font-family="Arial,sans-serif" font-size="9" fill="#999">Warehouse → Stock Overview</text>
    <g transform="translate(20,46)">
      <rect x="0" y="0" width="130" height="68" rx="8" fill="#f0f4ff" stroke="#667eea" stroke-width="1"/>
      <text x="12" y="18" font-family="Arial,sans-serif" font-weight="700" font-size="9" fill="#667eea">TOTAL ITEMS</text>
      <text x="12" y="44" font-family="Arial,sans-serif" font-weight="900" font-size="22" fill="#1a202c">12,847</text>
      <text x="12" y="60" font-family="Arial,sans-serif" font-size="9" fill="#27c93f">▲ +234 this week</text>
      <rect x="140" y="0" width="130" height="68" rx="8" fill="#f0f4ff" stroke="#667eea" stroke-width="1"/>
      <text x="152" y="18" font-family="Arial,sans-serif" font-weight="700" font-size="9" fill="#667eea">LOW STOCK</text>
      <text x="152" y="44" font-family="Arial,sans-serif" font-weight="900" font-size="22" fill="#f5576c">23</text>
      <text x="152" y="60" font-family="Arial,sans-serif" font-size="9" fill="#f5576c">⚠ Reorder needed</text>
      <rect x="280" y="0" width="120" height="68" rx="8" fill="#f0f4ff" stroke="#667eea" stroke-width="1"/>
      <text x="292" y="18" font-family="Arial,sans-serif" font-weight="700" font-size="9" fill="#667eea">WAREHOUSES</text>
      <text x="292" y="44" font-family="Arial,sans-serif" font-weight="900" font-size="22" fill="#1a202c">4</text>
      <text x="292" y="60" font-family="Arial,sans-serif" font-size="9" fill="#666">Multi-location</text>
    </g>
    <g transform="translate(20,128)">
      <text x="0" y="0" font-family="Arial,sans-serif" font-weight="800" font-size="10" fill="#1a202c">STOCK MOVEMENT</text>
      <rect x="0" y="10" width="400" height="80" rx="6" fill="#fafbfc"/>
      <polyline points="20,80 60,55 100,65 140,40 180,50 220,30 260,42 300,25 340,35 380,18" fill="none" stroke="#667eea" stroke-width="2.5" stroke-linecap="round" stroke-linejoin="round"/>
      <polyline points="20,80 60,55 100,65 140,40 180,50 220,30 260,42 300,25 340,35 380,18 380,80 20,80" fill="rgba(102,126,234,0.15)" stroke="none"/>
      <circle cx="380" cy="18" r="4" fill="#667eea"/>
      <circle cx="380" cy="18" r="8" fill="#667eea" opacity="0.3"/>
    </g>
  </g>
  <g transform="translate(0,295)">
    <rect x="0" y="0" width="600" height="105" fill="rgba(255,255,255,0.97)"/>
    <rect x="0" y="0" width="600" height="2" fill="#667eea"/>
    <text x="30" y="34" font-family="Arial,sans-serif" font-weight="800" font-size="22" fill="#1a202c">Custom Inventory Module</text>
    <text x="30" y="56" font-family="Arial,sans-serif" font-size="12" fill="#5b6470">Real-time stock tracking with automated reorder rules</text>
    <g transform="translate(30,68)">
      <rect x="0" y="0" width="118" height="22" rx="11" fill="#1a202c"/>
      <text x="59" y="15" text-anchor="middle" font-family="Arial,sans-serif" font-weight="700" font-size="10" fill="#fbbf24">★ CLIENT PROJECT</text>
    </g>
    <g transform="translate(156,68)">
      <rect x="0" y="0" width="100" height="22" rx="11" fill="rgba(102,126,234,0.15)" stroke="#667eea" stroke-width="1"/>
      <text x="50" y="15" text-anchor="middle" font-family="Arial,sans-serif" font-weight="700" font-size="10" fill="#667eea">ODOO 17 ERP</text>
    </g>
    <g transform="translate(495,55)">
      <rect x="0" y="0" width="80" height="36" rx="6" fill="#667eea"/>
      <text x="40" y="16" text-anchor="middle" font-family="Arial,sans-serif" font-weight="700" font-size="8" fill="rgba(255,255,255,0.85)">IMPACT</text>
      <text x="40" y="30" text-anchor="middle" font-family="Arial,sans-serif" font-weight="900" font-size="13" fill="#fff">95%</text>
    </g>
  </g>
</svg>
