<svg xmlns="http://www.w3.org/2000/svg" viewBox="0 0 600 400" preserveAspectRatio="xMidYMid slice">
  <defs>
    <linearGradient id="bg" x1="0%" y1="0%" x2="100%" y2="100%">
      <stop offset="0%" style="stop-color:#ff8a3d"/><stop offset="100%" style="stop-color:#ff5e3a"/>
    </linearGradient>
    <pattern id="dotsPD" width="22" height="22" patternUnits="userSpaceOnUse"><circle cx="11" cy="11" r="1" fill="rgba(255,255,255,0.12)"/></pattern>
    <filter id="shPD" x="-20%" y="-20%" width="140%" height="140%">
      <feGaussianBlur in="SourceAlpha" stdDeviation="8"/><feOffset dy="6"/>
      <feComponentTransfer><feFuncA type="linear" slope="0.3"/></feComponentTransfer>
      <feMerge><feMergeNode/><feMergeNode in="SourceGraphic"/></feMerge>
    </filter>
  </defs>
  <rect width="600" height="400" fill="url(#bg)"/>
  <rect width="600" height="400" fill="url(#dotsPD)"/>
  <!-- Pipeline kanban -->
  <g transform="translate(60,40)" filter="url(#shPD)">
    <rect x="0" y="0" width="480" height="240" rx="12" fill="#fff"/>
    <rect x="0" y="0" width="480" height="36" rx="12" fill="#26292c"/>
    <rect x="0" y="26" width="480" height="10" fill="#26292c"/>
    <text x="20" y="22" font-family="Arial,sans-serif" font-weight="800" font-size="11" fill="#fff">SALES PIPELINE</text>
    <text x="460" y="22" text-anchor="end" font-family="Arial,sans-serif" font-size="10" fill="rgba(255,255,255,0.7)">Bi-directional sync ↻</text>
    <!-- 4 columns -->
    <g transform="translate(14,50)">
      <text x="0" y="0" font-family="Arial,sans-serif" font-weight="800" font-size="9" fill="#999">QUALIFIED</text>
      <text x="100" y="0" text-anchor="end" font-family="Arial,sans-serif" font-weight="700" font-size="9" fill="#ff8a3d">12</text>
      <rect x="0" y="6" width="108" height="40" rx="6" fill="#fff" stroke="#e0e6ed" stroke-width="1"/>
      <rect x="0" y="6" width="3" height="40" fill="#ff8a3d"/>
      <text x="10" y="20" font-family="Arial,sans-serif" font-weight="700" font-size="9" fill="#1a202c">Acme Corp</text>
      <text x="10" y="32" font-family="Arial,sans-serif" font-size="8" fill="#666">$24,000</text>
      <rect x="0" y="50" width="108" height="40" rx="6" fill="#fff" stroke="#e0e6ed" stroke-width="1"/>
      <rect x="0" y="50" width="3" height="40" fill="#ff8a3d"/>
      <text x="10" y="64" font-family="Arial,sans-serif" font-weight="700" font-size="9" fill="#1a202c">Globex Inc</text>
      <text x="10" y="76" font-family="Arial,sans-serif" font-size="8" fill="#666">$18,500</text>
      <rect x="0" y="94" width="108" height="40" rx="6" fill="#fff" stroke="#e0e6ed" stroke-width="1"/>
      <rect x="0" y="94" width="3" height="40" fill="#ff8a3d"/>
      <text x="10" y="108" font-family="Arial,sans-serif" font-weight="700" font-size="9" fill="#1a202c">Initech</text>
      <text x="10" y="120" font-family="Arial,sans-serif" font-size="8" fill="#666">$32,100</text>
    </g>
    <g transform="translate(132,50)">
      <text x="0" y="0" font-family="Arial,sans-serif" font-weight="800" font-size="9" fill="#999">CONTACT MADE</text>
      <text x="108" y="0" text-anchor="end" font-family="Arial,sans-serif" font-weight="700" font-size="9" fill="#fbbf24">8</text>
      <rect x="0" y="6" width="108" height="40" rx="6" fill="#fff" stroke="#e0e6ed" stroke-width="1"/>
      <rect x="0" y="6" width="3" height="40" fill="#fbbf24"/>
      <text x="10" y="20" font-family="Arial,sans-serif" font-weight="700" font-size="9" fill="#1a202c">Stark Industries</text>
      <text x="10" y="32" font-family="Arial,sans-serif" font-size="8" fill="#666">$45,000</text>
      <rect x="0" y="50" width="108" height="40" rx="6" fill="#fff" stroke="#e0e6ed" stroke-width="1"/>
      <rect x="0" y="50" width="3" height="40" fill="#fbbf24"/>
      <text x="10" y="64" font-family="Arial,sans-serif" font-weight="700" font-size="9" fill="#1a202c">Wayne Enterprise</text>
      <text x="10" y="76" font-family="Arial,sans-serif" font-size="8" fill="#666">$58,200</text>
    </g>
    <g transform="translate(250,50)">
      <text x="0" y="0" font-family="Arial,sans-serif" font-weight="800" font-size="9" fill="#999">PROPOSAL</text>
      <text x="108" y="0" text-anchor="end" font-family="Arial,sans-serif" font-weight="700" font-size="9" fill="#0AA64D">5</text>
      <rect x="0" y="6" width="108" height="40" rx="6" fill="#fff" stroke="#e0e6ed" stroke-width="1"/>
      <rect x="0" y="6" width="3" height="40" fill="#0AA64D"/>
      <text x="10" y="20" font-family="Arial,sans-serif" font-weight="700" font-size="9" fill="#1a202c">Umbrella Corp</text>
      <text x="10" y="32" font-family="Arial,sans-serif" font-size="8" fill="#666">$76,000</text>
      <rect x="0" y="50" width="108" height="40" rx="6" fill="#fff" stroke="#e0e6ed" stroke-width="1"/>
      <rect x="0" y="50" width="3" height="40" fill="#0AA64D"/>
      <text x="10" y="64" font-family="Arial,sans-serif" font-weight="700" font-size="9" fill="#1a202c">Cyberdyne</text>
      <text x="10" y="76" font-family="Arial,sans-serif" font-size="8" fill="#666">$89,500</text>
    </g>
    <g transform="translate(368,50)">
      <text x="0" y="0" font-family="Arial,sans-serif" font-weight="800" font-size="9" fill="#999">WON</text>
      <text x="98" y="0" text-anchor="end" font-family="Arial,sans-serif" font-weight="900" font-size="9" fill="#27c93f">$248K</text>
      <rect x="0" y="6" width="98" height="40" rx="6" fill="rgba(39,201,63,0.1)" stroke="#27c93f" stroke-width="1"/>
      <text x="10" y="20" font-family="Arial,sans-serif" font-weight="800" font-size="9" fill="#0F7B3F">✓ Pied Piper</text>
      <text x="10" y="32" font-family="Arial,sans-serif" font-weight="900" font-size="9" fill="#0F7B3F">$120,000</text>
    </g>
    <!-- Sync indicator -->
    <g transform="translate(20,200)">
      <rect x="0" y="0" width="440" height="28" rx="14" fill="rgba(255,138,61,0.1)"/>
      <circle cx="16" cy="14" r="5" fill="#ff8a3d">
        <animate attributeName="r" values="5;7;5" dur="2s" repeatCount="indefinite"/>
      </circle>
      <text x="220" y="18" text-anchor="middle" font-family="Arial,sans-serif" font-weight="800" font-size="10" fill="#ff5e3a">Odoo ↔ Pipedrive — Last sync: 30 sec ago</text>
    </g>
  </g>
  <g transform="translate(0,295)">
    <rect x="0" y="0" width="600" height="105" fill="rgba(255,255,255,0.97)"/>
    <rect x="0" y="0" width="600" height="2" fill="#ff5e3a"/>
    <text x="30" y="34" font-family="Arial,sans-serif" font-weight="800" font-size="22" fill="#1a202c">Pipedrive CRM Sync</text>
    <text x="30" y="56" font-family="Arial,sans-serif" font-size="12" fill="#5b6470">Bi-directional real-time sync of contacts, deals &amp; activities</text>
    <g transform="translate(30,68)">
      <rect x="0" y="0" width="118" height="22" rx="11" fill="#1a202c"/>
      <text x="59" y="15" text-anchor="middle" font-family="Arial,sans-serif" font-weight="700" font-size="10" fill="#fbbf24">★ CLIENT PROJECT</text>
    </g>
    <g transform="translate(156,68)">
      <rect x="0" y="0" width="116" height="22" rx="11" fill="rgba(255,138,61,0.15)" stroke="#ff5e3a" stroke-width="1"/>
      <text x="58" y="15" text-anchor="middle" font-family="Arial,sans-serif" font-weight="700" font-size="10" fill="#ff5e3a">PIPEDRIVE API</text>
    </g>
    <g transform="translate(495,55)">
      <rect x="0" y="0" width="80" height="36" rx="6" fill="#ff5e3a"/>
      <text x="40" y="16" text-anchor="middle" font-family="Arial,sans-serif" font-weight="700" font-size="8" fill="rgba(255,255,255,0.85)">SYNC</text>
      <text x="40" y="30" text-anchor="middle" font-family="Arial,sans-serif" font-weight="900" font-size="13" fill="#fff">2-WAY</text>
    </g>
  </g>
</svg>
